# xmcd
#
# Track frame offsets: 
#        150
#        16903
#        31690
#        50741
#        63879
#        77035
#        99712
#        115710
#        133373
#        150512
#        165942
#        183124
#
# Disc length: 2664 seconds
#
# Revision: 0
# Processed by: cddbd v1.5.2PL0 Copyright (c) Steve Scherf et al.
# Submitted via: ExactAudioCopy v1.0b4
#
DISCID=8a0a660c
DTITLE=Angela Strehli - Soul Shake (LP)
DYEAR=1987
DGENRE=Blues
TTITLE0=Wouldn' t Treat A Dog
TTITLE1=Your Sweetness
TTITLE2=Be Bop Man
TTITLE3=It Hurts Me, Too
TTITLE4=Take It From Me
TTITLE5=Mean Mistreater
TTITLE6=Soul Shake
TTITLE7=20% Alcohol
TTITLE8=Tough Times
TTITLE9=Back In My Arms Again
TTITLE10=In Spite Of What You Do
TTITLE11=Bigtown Playboy
EXTD=
EXTT0=
EXTT1=
EXTT2=
EXTT3=
EXTT4=
EXTT5=
EXTT6=
EXTT7=
EXTT8=
EXTT9=
EXTT10=
EXTT11=
PLAYORDER=
